<svg id="Layer_1" data-name="Layer 1" xmlns="http://www.w3.org/2000/svg" viewBox="0 0 175 33"><defs><style>.cls-1{fill:#fff;}.cls-2{fill:#d4582a;}</style></defs><path class="cls-1" d="M27.09,29.48l1.47-1.75a10,10,0,0,0,7.22,3c2.83,0,4.69-1.51,4.69-3.59v0c0-2-1-3.08-5.47-4C30.16,22,27.94,20.42,27.94,17v-.07c0-3.32,2.94-5.76,6.92-5.76a10.92,10.92,0,0,1,7.39,2.6l-1.38,1.84a9.22,9.22,0,0,0-6.07-2.3c-2.73,0-4.47,1.51-4.47,3.42v.07c0,2,1.08,3.1,5.71,4.1s6.86,2.75,6.86,6v.06c0,3.63-3,6-7.18,6A12.31,12.31,0,0,1,27.09,29.48Zm19.69-7.43V22A10.63,10.63,0,0,1,57.43,11.06a10.91,10.91,0,0,1,8.2,3.35L64,16.16a9.13,9.13,0,0,0-6.61-2.9c-4.66,0-8.15,3.81-8.15,8.67V22c0,4.89,3.52,8.73,8.15,8.73,2.88,0,4.78-1.12,6.79-3l1.57,1.54a11,11,0,0,1-8.42,3.72A10.54,10.54,0,0,1,46.78,22.05ZM69.91,11.42H85.1v2.17H72.28v7.22H83.76V23H72.28v7.39h13v2.17H69.91Zm20.14,0h2.22l13.24,16.94V11.42h2.33V32.56H106L92.36,15.22V32.56H90.05Zm23.75,0h7.31c6.61,0,11.18,4.56,11.18,10.51V22c0,6-4.57,10.57-11.18,10.57H113.8Zm2.38,2.2V30.37h4.93c5.32,0,8.71-3.62,8.71-8.31V22c0-4.68-3.39-8.37-8.71-8.37Zm21.13-2.2h15.2v2.17h-12.8v7.22h11.48V23H139.71v7.39h13v2.17H137.31Zm20.15,0h9a8.27,8.27,0,0,1,6,2.11,5.83,5.83,0,0,1,1.62,4.17v.06c0,3.51-2.4,5.56-5.71,6.16l6.47,8.64h-2.94l-6.08-8.21h-6v8.21h-2.37V11.42Zm8.82,10.78c3.16,0,5.4-1.63,5.4-4.35v-.06c0-2.6-2-4.17-5.4-4.17h-6.45V22.2ZM22.77,32.32H25.3l-12.65-22L0,32.32H2.52L12.65,14.68Z"/><path class="cls-2" d="M8.59,32.32h2.53L29.72,0H27.2Z"/></svg>